%TF.GenerationSoftware,KiCad,Pcbnew,8.0.3*%
%TF.CreationDate,2024-08-23T16:47:22+02:00*%
%TF.ProjectId,BOOST_CONVERTER,424f4f53-545f-4434-9f4e-564552544552,1.0*%
%TF.SameCoordinates,Original*%
%TF.FileFunction,Copper,L2,Bot*%
%TF.FilePolarity,Positive*%
%FSLAX46Y46*%
G04 Gerber Fmt 4.6, Leading zero omitted, Abs format (unit mm)*
G04 Created by KiCad (PCBNEW 8.0.3) date 2024-08-23 16:47:22*
%MOMM*%
%LPD*%
G01*
G04 APERTURE LIST*
%TA.AperFunction,ComponentPad*%
%ADD10R,1.700000X1.700000*%
%TD*%
%TA.AperFunction,ComponentPad*%
%ADD11O,1.800000X1.000000*%
%TD*%
%TA.AperFunction,ComponentPad*%
%ADD12O,2.100000X1.000000*%
%TD*%
%TA.AperFunction,ViaPad*%
%ADD13C,0.500000*%
%TD*%
%TA.AperFunction,ViaPad*%
%ADD14C,0.600000*%
%TD*%
G04 APERTURE END LIST*
D10*
%TO.P,J2,1,Pin_1*%
%TO.N,GND*%
X124100000Y-82390000D03*
%TD*%
%TO.P,J1,1,Pin_1*%
%TO.N,/12V*%
X124100000Y-87450000D03*
%TD*%
D11*
%TO.P,P1,S1,SHIELD*%
%TO.N,GND*%
X92435000Y-90520000D03*
D12*
X96615000Y-90520000D03*
D11*
X92435000Y-81880000D03*
D12*
X96615000Y-81880000D03*
%TD*%
D13*
%TO.N,GND*%
X121780000Y-78920000D03*
X120920000Y-78900000D03*
X120040000Y-78920000D03*
X121790000Y-77970000D03*
X120910000Y-77970000D03*
X114100000Y-86800000D03*
X120010000Y-77970000D03*
X117700000Y-86800000D03*
X116600000Y-86800000D03*
X115400000Y-86800000D03*
D14*
X101900000Y-84800000D03*
D13*
X119120000Y-77990000D03*
D14*
X101890000Y-87900000D03*
%TD*%
%TA.AperFunction,Conductor*%
%TO.N,GND*%
G36*
X122693883Y-77420185D02*
G01*
X122739638Y-77472989D01*
X122750840Y-77525474D01*
X122714576Y-82139999D01*
X122714577Y-82140000D01*
X122710647Y-82640000D01*
X122685529Y-85836325D01*
X122643485Y-91186475D01*
X122623275Y-91253357D01*
X122570114Y-91298696D01*
X122519490Y-91309500D01*
X98072151Y-91309500D01*
X98005112Y-91289815D01*
X97959357Y-91237011D01*
X97949413Y-91167853D01*
X97969049Y-91116609D01*
X98051185Y-90993684D01*
X98051192Y-90993671D01*
X98126569Y-90811692D01*
X98126569Y-90811690D01*
X98134862Y-90770000D01*
X97331988Y-90770000D01*
X97349205Y-90760060D01*
X97405060Y-90704205D01*
X97444556Y-90635796D01*
X97465000Y-90559496D01*
X97465000Y-90480504D01*
X97444556Y-90404204D01*
X97405060Y-90335795D01*
X97349205Y-90279940D01*
X97331988Y-90270000D01*
X98134862Y-90270000D01*
X98126569Y-90228309D01*
X98126569Y-90228307D01*
X98051192Y-90046328D01*
X98051185Y-90046315D01*
X97941751Y-89882537D01*
X97941748Y-89882533D01*
X97802466Y-89743251D01*
X97802462Y-89743248D01*
X97638684Y-89633814D01*
X97638671Y-89633807D01*
X97456693Y-89558430D01*
X97456681Y-89558427D01*
X97263495Y-89520000D01*
X96746045Y-89520000D01*
X96679006Y-89500315D01*
X96633251Y-89447511D01*
X96623307Y-89378353D01*
X96638658Y-89334000D01*
X96651279Y-89312138D01*
X96651281Y-89312135D01*
X96690500Y-89165766D01*
X96690500Y-89014234D01*
X96651281Y-88867865D01*
X96575515Y-88736635D01*
X96468365Y-88629485D01*
X96402750Y-88591602D01*
X96337136Y-88553719D01*
X96263950Y-88534109D01*
X96190766Y-88514500D01*
X96039234Y-88514500D01*
X95892863Y-88553719D01*
X95761635Y-88629485D01*
X95761632Y-88629487D01*
X95654487Y-88736632D01*
X95654485Y-88736635D01*
X95578719Y-88867863D01*
X95539500Y-89014234D01*
X95539500Y-89165765D01*
X95578719Y-89312136D01*
X95616950Y-89378353D01*
X95654485Y-89443365D01*
X95654486Y-89443366D01*
X95658549Y-89450403D01*
X95656346Y-89451674D01*
X95676959Y-89504983D01*
X95662923Y-89573428D01*
X95614112Y-89623420D01*
X95600845Y-89629866D01*
X95591324Y-89633809D01*
X95591315Y-89633814D01*
X95427537Y-89743248D01*
X95427533Y-89743251D01*
X95288251Y-89882533D01*
X95288248Y-89882537D01*
X95178814Y-90046315D01*
X95178807Y-90046328D01*
X95103430Y-90228307D01*
X95103430Y-90228309D01*
X95095138Y-90270000D01*
X95898012Y-90270000D01*
X95880795Y-90279940D01*
X95824940Y-90335795D01*
X95785444Y-90404204D01*
X95765000Y-90480504D01*
X95765000Y-90559496D01*
X95785444Y-90635796D01*
X95824940Y-90704205D01*
X95880795Y-90760060D01*
X95898012Y-90770000D01*
X95095138Y-90770000D01*
X95103430Y-90811690D01*
X95103430Y-90811692D01*
X95178807Y-90993671D01*
X95178814Y-90993684D01*
X95260951Y-91116609D01*
X95281829Y-91183286D01*
X95263345Y-91250666D01*
X95211366Y-91297357D01*
X95157849Y-91309500D01*
X93742151Y-91309500D01*
X93675112Y-91289815D01*
X93629357Y-91237011D01*
X93619413Y-91167853D01*
X93639049Y-91116609D01*
X93721185Y-90993684D01*
X93721192Y-90993671D01*
X93796569Y-90811692D01*
X93796569Y-90811690D01*
X93804862Y-90770000D01*
X93001988Y-90770000D01*
X93019205Y-90760060D01*
X93075060Y-90704205D01*
X93114556Y-90635796D01*
X93135000Y-90559496D01*
X93135000Y-90480504D01*
X93114556Y-90404204D01*
X93075060Y-90335795D01*
X93019205Y-90279940D01*
X93001988Y-90270000D01*
X93804862Y-90270000D01*
X93796569Y-90228309D01*
X93796569Y-90228307D01*
X93721192Y-90046328D01*
X93721185Y-90046315D01*
X93611751Y-89882537D01*
X93611748Y-89882533D01*
X93472466Y-89743251D01*
X93472462Y-89743248D01*
X93308684Y-89633814D01*
X93308671Y-89633807D01*
X93126693Y-89558430D01*
X93126681Y-89558427D01*
X92933495Y-89520000D01*
X92685000Y-89520000D01*
X92685000Y-90220000D01*
X92185000Y-90220000D01*
X92185000Y-89520000D01*
X91936504Y-89520000D01*
X91743318Y-89558427D01*
X91743306Y-89558430D01*
X91561328Y-89633807D01*
X91561315Y-89633814D01*
X91397537Y-89743248D01*
X91397533Y-89743251D01*
X91258251Y-89882533D01*
X91258248Y-89882537D01*
X91148814Y-90046315D01*
X91148807Y-90046328D01*
X91073430Y-90228307D01*
X91073430Y-90228309D01*
X91065138Y-90270000D01*
X91868012Y-90270000D01*
X91850795Y-90279940D01*
X91794940Y-90335795D01*
X91755444Y-90404204D01*
X91735000Y-90480504D01*
X91735000Y-90559496D01*
X91755444Y-90635796D01*
X91794940Y-90704205D01*
X91850795Y-90760060D01*
X91868012Y-90770000D01*
X91065138Y-90770000D01*
X91073430Y-90811690D01*
X91073430Y-90811692D01*
X91148807Y-90993671D01*
X91148814Y-90993684D01*
X91230951Y-91116609D01*
X91251829Y-91183286D01*
X91233345Y-91250666D01*
X91181366Y-91297357D01*
X91127849Y-91309500D01*
X90439500Y-91309500D01*
X90372461Y-91289815D01*
X90326706Y-91237011D01*
X90315500Y-91185500D01*
X90315500Y-81630000D01*
X91065138Y-81630000D01*
X91868012Y-81630000D01*
X91850795Y-81639940D01*
X91794940Y-81695795D01*
X91755444Y-81764204D01*
X91735000Y-81840504D01*
X91735000Y-81919496D01*
X91755444Y-81995796D01*
X91794940Y-82064205D01*
X91850795Y-82120060D01*
X91868012Y-82130000D01*
X91065138Y-82130000D01*
X91073430Y-82171690D01*
X91073430Y-82171692D01*
X91148807Y-82353671D01*
X91148814Y-82353684D01*
X91258248Y-82517462D01*
X91258251Y-82517466D01*
X91397533Y-82656748D01*
X91397537Y-82656751D01*
X91561315Y-82766185D01*
X91561328Y-82766192D01*
X91743306Y-82841569D01*
X91743318Y-82841572D01*
X91936504Y-82879999D01*
X91936508Y-82880000D01*
X92185000Y-82880000D01*
X92185000Y-82180000D01*
X92685000Y-82180000D01*
X92685000Y-82880000D01*
X92933492Y-82880000D01*
X92933495Y-82879999D01*
X93126681Y-82841572D01*
X93126693Y-82841569D01*
X93308671Y-82766192D01*
X93308684Y-82766185D01*
X93472462Y-82656751D01*
X93472466Y-82656748D01*
X93611748Y-82517466D01*
X93611751Y-82517462D01*
X93721185Y-82353684D01*
X93721192Y-82353671D01*
X93796569Y-82171692D01*
X93796569Y-82171690D01*
X93804862Y-82130000D01*
X93001988Y-82130000D01*
X93019205Y-82120060D01*
X93075060Y-82064205D01*
X93114556Y-81995796D01*
X93135000Y-81919496D01*
X93135000Y-81840504D01*
X93114556Y-81764204D01*
X93075060Y-81695795D01*
X93019205Y-81639940D01*
X93001988Y-81630000D01*
X93804862Y-81630000D01*
X95095138Y-81630000D01*
X95898012Y-81630000D01*
X95880795Y-81639940D01*
X95824940Y-81695795D01*
X95785444Y-81764204D01*
X95765000Y-81840504D01*
X95765000Y-81919496D01*
X95785444Y-81995796D01*
X95824940Y-82064205D01*
X95880795Y-82120060D01*
X95898012Y-82130000D01*
X95095138Y-82130000D01*
X95103430Y-82171690D01*
X95103430Y-82171692D01*
X95178807Y-82353671D01*
X95178814Y-82353684D01*
X95288248Y-82517462D01*
X95288251Y-82517466D01*
X95427533Y-82656748D01*
X95427537Y-82656751D01*
X95591315Y-82766185D01*
X95591328Y-82766192D01*
X95600838Y-82770131D01*
X95655243Y-82813970D01*
X95677310Y-82880264D01*
X95660033Y-82947963D01*
X95656350Y-82953405D01*
X95578719Y-83087863D01*
X95539500Y-83234234D01*
X95539500Y-83385765D01*
X95578719Y-83532136D01*
X95616602Y-83597750D01*
X95654485Y-83663365D01*
X95761635Y-83770515D01*
X95892865Y-83846281D01*
X96039234Y-83885500D01*
X96039236Y-83885500D01*
X96190764Y-83885500D01*
X96190766Y-83885500D01*
X96337135Y-83846281D01*
X96468365Y-83770515D01*
X96575515Y-83663365D01*
X96651281Y-83532135D01*
X96690500Y-83385766D01*
X96690500Y-83234234D01*
X96651281Y-83087865D01*
X96651279Y-83087861D01*
X96638658Y-83066000D01*
X96622185Y-82998099D01*
X96645038Y-82932073D01*
X96699959Y-82888882D01*
X96746045Y-82880000D01*
X97263492Y-82880000D01*
X97263495Y-82879999D01*
X97456681Y-82841572D01*
X97456693Y-82841569D01*
X97638671Y-82766192D01*
X97638684Y-82766185D01*
X97802462Y-82656751D01*
X97802466Y-82656748D01*
X97941748Y-82517466D01*
X97941751Y-82517462D01*
X98051185Y-82353684D01*
X98051192Y-82353671D01*
X98126569Y-82171692D01*
X98126569Y-82171690D01*
X98134862Y-82130000D01*
X97331988Y-82130000D01*
X97349205Y-82120060D01*
X97405060Y-82064205D01*
X97444556Y-81995796D01*
X97465000Y-81919496D01*
X97465000Y-81840504D01*
X97444556Y-81764204D01*
X97405060Y-81695795D01*
X97349205Y-81639940D01*
X97331988Y-81630000D01*
X98134862Y-81630000D01*
X98126569Y-81588309D01*
X98126569Y-81588307D01*
X98051192Y-81406328D01*
X98051185Y-81406315D01*
X97941751Y-81242537D01*
X97941748Y-81242533D01*
X97802466Y-81103251D01*
X97802462Y-81103248D01*
X97638684Y-80993814D01*
X97638671Y-80993807D01*
X97456693Y-80918430D01*
X97456681Y-80918427D01*
X97263495Y-80880000D01*
X96865000Y-80880000D01*
X96865000Y-81580000D01*
X96365000Y-81580000D01*
X96365000Y-80880000D01*
X95966504Y-80880000D01*
X95773318Y-80918427D01*
X95773306Y-80918430D01*
X95591328Y-80993807D01*
X95591315Y-80993814D01*
X95427537Y-81103248D01*
X95427533Y-81103251D01*
X95288251Y-81242533D01*
X95288248Y-81242537D01*
X95178814Y-81406315D01*
X95178807Y-81406328D01*
X95103430Y-81588307D01*
X95103430Y-81588309D01*
X95095138Y-81630000D01*
X93804862Y-81630000D01*
X93796569Y-81588309D01*
X93796569Y-81588307D01*
X93721192Y-81406328D01*
X93721185Y-81406315D01*
X93611751Y-81242537D01*
X93611748Y-81242533D01*
X93472466Y-81103251D01*
X93472462Y-81103248D01*
X93308684Y-80993814D01*
X93308671Y-80993807D01*
X93126693Y-80918430D01*
X93126681Y-80918427D01*
X92933495Y-80880000D01*
X92685000Y-80880000D01*
X92685000Y-81580000D01*
X92185000Y-81580000D01*
X92185000Y-80880000D01*
X91936504Y-80880000D01*
X91743318Y-80918427D01*
X91743306Y-80918430D01*
X91561328Y-80993807D01*
X91561315Y-80993814D01*
X91397537Y-81103248D01*
X91397533Y-81103251D01*
X91258251Y-81242533D01*
X91258248Y-81242537D01*
X91148814Y-81406315D01*
X91148807Y-81406328D01*
X91073430Y-81588307D01*
X91073430Y-81588309D01*
X91065138Y-81630000D01*
X90315500Y-81630000D01*
X90315500Y-77524500D01*
X90335185Y-77457461D01*
X90387989Y-77411706D01*
X90439500Y-77400500D01*
X122626844Y-77400500D01*
X122693883Y-77420185D01*
G37*
%TD.AperFunction*%
%TD*%
M02*
