M48
; DRILL file {KiCad 8.0.3} date 2024-08-23T16:47:16+0200
; FORMAT={-:-/ absolute / inch / decimal}
; #@! TF.CreationDate,2024-08-23T16:47:16+02:00
; #@! TF.GenerationSoftware,Kicad,Pcbnew,8.0.3
; #@! TF.FileFunction,Plated,1,2,PTH
FMAT,2
INCH
; #@! TA.AperFunction,Plated,PTH,ViaDrill
T1C0.0118
; #@! TA.AperFunction,Plated,PTH,ComponentDrill
T2C0.0236
; #@! TA.AperFunction,Plated,PTH,ComponentDrill
T3C0.0394
%
G90
G05
T1
X4.0114Y-3.4606
X4.0118Y-3.3386
X4.4921Y-3.4173
X4.5433Y-3.4173
X4.5906Y-3.4173
X4.6339Y-3.4173
X4.6898Y-3.0705
X4.7248Y-3.0697
X4.726Y-3.1071
X4.7602Y-3.0697
X4.7606Y-3.1063
X4.7945Y-3.1071
X4.7949Y-3.0697
T3
X4.8858Y-3.2437
X4.8858Y-3.4429
T2
G00X3.6549Y-3.2236
M15
G01X3.6234Y-3.2236
M16
G05
G00X3.6549Y-3.5638
M15
G01X3.6234Y-3.5638
M16
G05
G00X3.8254Y-3.2236
M15
G01X3.7821Y-3.2236
M16
G05
G00X3.8254Y-3.5638
M15
G01X3.7821Y-3.5638
M16
G05
M30
