%TF.GenerationSoftware,KiCad,Pcbnew,8.0.3*%
%TF.CreationDate,2024-08-23T16:47:22+02:00*%
%TF.ProjectId,BOOST_CONVERTER,424f4f53-545f-4434-9f4e-564552544552,1.0*%
%TF.SameCoordinates,Original*%
%TF.FileFunction,Copper,L1,Top*%
%TF.FilePolarity,Positive*%
%FSLAX46Y46*%
G04 Gerber Fmt 4.6, Leading zero omitted, Abs format (unit mm)*
G04 Created by KiCad (PCBNEW 8.0.3) date 2024-08-23 16:47:22*
%MOMM*%
%LPD*%
G01*
G04 APERTURE LIST*
G04 Aperture macros list*
%AMRoundRect*
0 Rectangle with rounded corners*
0 $1 Rounding radius*
0 $2 $3 $4 $5 $6 $7 $8 $9 X,Y pos of 4 corners*
0 Add a 4 corners polygon primitive as box body*
4,1,4,$2,$3,$4,$5,$6,$7,$8,$9,$2,$3,0*
0 Add four circle primitives for the rounded corners*
1,1,$1+$1,$2,$3*
1,1,$1+$1,$4,$5*
1,1,$1+$1,$6,$7*
1,1,$1+$1,$8,$9*
0 Add four rect primitives between the rounded corners*
20,1,$1+$1,$2,$3,$4,$5,0*
20,1,$1+$1,$4,$5,$6,$7,0*
20,1,$1+$1,$6,$7,$8,$9,0*
20,1,$1+$1,$8,$9,$2,$3,0*%
G04 Aperture macros list end*
%TA.AperFunction,ComponentPad*%
%ADD10R,1.700000X1.700000*%
%TD*%
%TA.AperFunction,SMDPad,CuDef*%
%ADD11RoundRect,0.135000X-0.135000X-0.185000X0.135000X-0.185000X0.135000X0.185000X-0.135000X0.185000X0*%
%TD*%
%TA.AperFunction,ComponentPad*%
%ADD12O,1.800000X1.000000*%
%TD*%
%TA.AperFunction,ComponentPad*%
%ADD13O,2.100000X1.000000*%
%TD*%
%TA.AperFunction,SMDPad,CuDef*%
%ADD14RoundRect,0.150000X-0.425000X0.150000X-0.425000X-0.150000X0.425000X-0.150000X0.425000X0.150000X0*%
%TD*%
%TA.AperFunction,SMDPad,CuDef*%
%ADD15RoundRect,0.075000X-0.500000X0.075000X-0.500000X-0.075000X0.500000X-0.075000X0.500000X0.075000X0*%
%TD*%
%TA.AperFunction,SMDPad,CuDef*%
%ADD16RoundRect,0.225000X0.225000X0.375000X-0.225000X0.375000X-0.225000X-0.375000X0.225000X-0.375000X0*%
%TD*%
%TA.AperFunction,SMDPad,CuDef*%
%ADD17RoundRect,0.200000X0.275000X-0.200000X0.275000X0.200000X-0.275000X0.200000X-0.275000X-0.200000X0*%
%TD*%
%TA.AperFunction,SMDPad,CuDef*%
%ADD18R,8.200000X2.600000*%
%TD*%
%TA.AperFunction,SMDPad,CuDef*%
%ADD19RoundRect,0.250000X0.650000X-0.325000X0.650000X0.325000X-0.650000X0.325000X-0.650000X-0.325000X0*%
%TD*%
%TA.AperFunction,SMDPad,CuDef*%
%ADD20RoundRect,0.150000X0.150000X-0.512500X0.150000X0.512500X-0.150000X0.512500X-0.150000X-0.512500X0*%
%TD*%
%TA.AperFunction,SMDPad,CuDef*%
%ADD21RoundRect,0.250000X-0.325000X-0.650000X0.325000X-0.650000X0.325000X0.650000X-0.325000X0.650000X0*%
%TD*%
%TA.AperFunction,ViaPad*%
%ADD22C,0.500000*%
%TD*%
%TA.AperFunction,ViaPad*%
%ADD23C,0.600000*%
%TD*%
%TA.AperFunction,Conductor*%
%ADD24C,0.200000*%
%TD*%
%TA.AperFunction,Conductor*%
%ADD25C,0.500000*%
%TD*%
%TA.AperFunction,Conductor*%
%ADD26C,0.300000*%
%TD*%
G04 APERTURE END LIST*
D10*
%TO.P,J2,1,Pin_1*%
%TO.N,GND*%
X124100000Y-82390000D03*
%TD*%
%TO.P,J1,1,Pin_1*%
%TO.N,/12V*%
X124100000Y-87450000D03*
%TD*%
D11*
%TO.P,R2,1*%
%TO.N,/CC1*%
X99490000Y-84800000D03*
%TO.P,R2,2*%
%TO.N,GND*%
X100510000Y-84800000D03*
%TD*%
D12*
%TO.P,P1,S1,SHIELD*%
%TO.N,GND*%
X92435000Y-90520000D03*
D13*
X96615000Y-90520000D03*
D12*
X92435000Y-81880000D03*
D13*
X96615000Y-81880000D03*
D14*
%TO.P,P1,B12,GND*%
X97190000Y-83000000D03*
%TO.P,P1,B9,VBUS*%
%TO.N,/VBUS*%
X97190000Y-83800000D03*
D15*
%TO.P,P1,B8*%
%TO.N,N/C*%
X97190000Y-84450000D03*
%TO.P,P1,B7*%
X97190000Y-85450000D03*
%TO.P,P1,B6*%
X97190000Y-86950000D03*
%TO.P,P1,B5,VCONN*%
%TO.N,/CC2*%
X97190000Y-87950000D03*
D14*
%TO.P,P1,B4,VBUS*%
%TO.N,/VBUS*%
X97190000Y-88600000D03*
%TO.P,P1,B1,GND*%
%TO.N,GND*%
X97190000Y-89400000D03*
%TO.P,P1,A12,GND*%
X97190000Y-89400000D03*
%TO.P,P1,A9,VBUS*%
%TO.N,/VBUS*%
X97190000Y-88600000D03*
D15*
%TO.P,P1,A8*%
%TO.N,N/C*%
X97190000Y-87450000D03*
%TO.P,P1,A7,D-*%
%TO.N,unconnected-(P1-D--PadA7)*%
X97190000Y-86450000D03*
%TO.P,P1,A6,D+*%
%TO.N,unconnected-(P1-D+-PadA6)*%
X97190000Y-85950000D03*
%TO.P,P1,A5,CC*%
%TO.N,/CC1*%
X97190000Y-84950000D03*
D14*
%TO.P,P1,A4,VBUS*%
%TO.N,/VBUS*%
X97190000Y-83800000D03*
%TO.P,P1,A1,GND*%
%TO.N,GND*%
X97190000Y-83000000D03*
%TD*%
D16*
%TO.P,D1,1,K*%
%TO.N,/12V*%
X116300000Y-88600000D03*
%TO.P,D1,2,A*%
%TO.N,/SW*%
X113000000Y-88600000D03*
%TD*%
D17*
%TO.P,R3,1*%
%TO.N,/12V*%
X121500000Y-85550000D03*
%TO.P,R3,2*%
%TO.N,/FB*%
X121500000Y-83900000D03*
%TD*%
D11*
%TO.P,R1,1*%
%TO.N,/CC2*%
X99680000Y-87900000D03*
%TO.P,R1,2*%
%TO.N,GND*%
X100700000Y-87900000D03*
%TD*%
D18*
%TO.P,L1,1,1*%
%TO.N,/VBUS*%
X107100000Y-82400000D03*
%TO.P,L1,2,2*%
%TO.N,/SW*%
X107100000Y-88000000D03*
%TD*%
D17*
%TO.P,R4,1*%
%TO.N,/FB*%
X121400000Y-81725000D03*
%TO.P,R4,2*%
%TO.N,GND*%
X121400000Y-80075000D03*
%TD*%
D19*
%TO.P,C2,1*%
%TO.N,/12V*%
X119160000Y-88935000D03*
%TO.P,C2,2*%
%TO.N,GND*%
X119160000Y-85985000D03*
%TD*%
D20*
%TO.P,U1,1,SW*%
%TO.N,/SW*%
X113000000Y-85500000D03*
%TO.P,U1,2,GND*%
%TO.N,GND*%
X113950000Y-85500000D03*
%TO.P,U1,3,FB*%
%TO.N,/FB*%
X114900000Y-85500000D03*
%TO.P,U1,4,EN*%
%TO.N,/VBUS*%
X114900000Y-83225000D03*
%TO.P,U1,5,VIN*%
X113950000Y-83225000D03*
%TO.P,U1,6,FREQ*%
%TO.N,GND*%
X113000000Y-83225000D03*
%TD*%
D21*
%TO.P,C1,1*%
%TO.N,/VBUS*%
X115625000Y-79500000D03*
%TO.P,C1,2*%
%TO.N,GND*%
X118575000Y-79500000D03*
%TD*%
D22*
%TO.N,GND*%
X121780000Y-78920000D03*
X120920000Y-78900000D03*
X120040000Y-78920000D03*
X121790000Y-77970000D03*
X120910000Y-77970000D03*
X114100000Y-86800000D03*
X120010000Y-77970000D03*
X117700000Y-86800000D03*
X116600000Y-86800000D03*
X115400000Y-86800000D03*
D23*
X101900000Y-84800000D03*
D22*
X119120000Y-77990000D03*
D23*
X101890000Y-87900000D03*
%TD*%
D24*
%TO.N,GND*%
X100510000Y-84800000D02*
X101900000Y-84800000D01*
D25*
X97770000Y-81660000D02*
X97550000Y-81880000D01*
X97190000Y-89400000D02*
X97190000Y-89945000D01*
D26*
X113150000Y-83162500D02*
X113150000Y-84063738D01*
D25*
X98760000Y-82220000D02*
X98200000Y-81660000D01*
D24*
X101900000Y-84800000D02*
X101800000Y-84800000D01*
D25*
X97190000Y-83000000D02*
X97980000Y-83000000D01*
X97980000Y-83000000D02*
X98760000Y-82220000D01*
D26*
X114100000Y-85013738D02*
X114100000Y-85437500D01*
D25*
X97190000Y-89945000D02*
X96615000Y-90520000D01*
X98200000Y-81660000D02*
X97770000Y-81660000D01*
D26*
X113150000Y-84063738D02*
X114100000Y-85013738D01*
D24*
X100700000Y-87900000D02*
X101890000Y-87900000D01*
D25*
X97550000Y-81880000D02*
X96615000Y-81880000D01*
D24*
%TO.N,/CC2*%
X99635000Y-87855000D02*
X99680000Y-87900000D01*
X97270000Y-87855000D02*
X99635000Y-87855000D01*
%TO.N,/CC1*%
X99435000Y-84855000D02*
X99490000Y-84800000D01*
X97270000Y-84855000D02*
X99435000Y-84855000D01*
D25*
%TO.N,/FB*%
X117700000Y-84500000D02*
X117700000Y-83900000D01*
X115050000Y-85437500D02*
X116762500Y-85437500D01*
X116762500Y-85437500D02*
X117700000Y-84500000D01*
X121400000Y-81725000D02*
X121400000Y-83800000D01*
X121400000Y-83800000D02*
X121500000Y-83900000D01*
X117700000Y-83900000D02*
X121500000Y-83900000D01*
%TD*%
%TA.AperFunction,Conductor*%
%TO.N,/12V*%
G36*
X125133645Y-84979943D02*
G01*
X125179642Y-85032537D01*
X125191080Y-85083480D01*
X125228919Y-89406579D01*
X125209822Y-89473788D01*
X125157421Y-89520003D01*
X125106586Y-89531653D01*
X115652854Y-89658353D01*
X115585556Y-89639568D01*
X115539098Y-89587382D01*
X115527224Y-89537166D01*
X115492832Y-88015349D01*
X115510997Y-87947885D01*
X115562753Y-87900948D01*
X115615370Y-87888558D01*
X120710000Y-87830000D01*
X120825021Y-85098238D01*
X120847508Y-85032088D01*
X120902190Y-84988595D01*
X120948341Y-84979457D01*
X125066517Y-84960566D01*
X125133645Y-84979943D01*
G37*
%TD.AperFunction*%
%TD*%
%TA.AperFunction,Conductor*%
%TO.N,/SW*%
G36*
X113291562Y-84860324D02*
G01*
X113337808Y-84912698D01*
X113349500Y-84965261D01*
X113349500Y-85428078D01*
X113349480Y-85430288D01*
X113272178Y-89767735D01*
X113251302Y-89834413D01*
X113197691Y-89879219D01*
X113147716Y-89889524D01*
X102992891Y-89850050D01*
X102967391Y-89847298D01*
X102951706Y-89843937D01*
X102936022Y-89840576D01*
X102874596Y-89807281D01*
X102840921Y-89746062D01*
X102838030Y-89721822D01*
X102772542Y-86456748D01*
X102790878Y-86389328D01*
X102842754Y-86342523D01*
X102896771Y-86330262D01*
X112430000Y-86350000D01*
X112302530Y-84984254D01*
X112315899Y-84915679D01*
X112364222Y-84865215D01*
X112424830Y-84848739D01*
X113224347Y-84841267D01*
X113291562Y-84860324D01*
G37*
%TD.AperFunction*%
%TD*%
%TA.AperFunction,Conductor*%
%TO.N,/VBUS*%
G36*
X116341184Y-77420185D02*
G01*
X116386939Y-77472989D01*
X116398144Y-77525054D01*
X116370543Y-83698431D01*
X116350559Y-83765382D01*
X116297551Y-83810901D01*
X116248444Y-83821862D01*
X113726400Y-83860514D01*
X113659067Y-83841859D01*
X113612508Y-83789763D01*
X113600500Y-83736529D01*
X113600500Y-82658230D01*
X113597646Y-82627800D01*
X113597646Y-82627798D01*
X113564006Y-82531663D01*
X113552793Y-82499618D01*
X113472150Y-82390350D01*
X113362882Y-82309707D01*
X113362880Y-82309706D01*
X113234700Y-82264853D01*
X113204270Y-82262000D01*
X113204266Y-82262000D01*
X112795734Y-82262000D01*
X112795730Y-82262000D01*
X112765300Y-82264853D01*
X112765298Y-82264853D01*
X112637119Y-82309706D01*
X112637117Y-82309707D01*
X112527850Y-82390350D01*
X112447207Y-82499617D01*
X112447206Y-82499619D01*
X112402353Y-82627798D01*
X112402353Y-82627800D01*
X112399500Y-82658230D01*
X112399500Y-83758736D01*
X112379815Y-83825775D01*
X112327011Y-83871530D01*
X112277400Y-83882721D01*
X98100008Y-84099999D01*
X98010178Y-84105283D01*
X97942098Y-84089569D01*
X97915216Y-84069178D01*
X97911210Y-84065172D01*
X97798628Y-84010135D01*
X97798626Y-84010134D01*
X97798625Y-84010134D01*
X97725636Y-83999500D01*
X96654364Y-83999500D01*
X96581375Y-84010134D01*
X96581373Y-84010134D01*
X96581371Y-84010135D01*
X96468789Y-84065172D01*
X96380172Y-84153789D01*
X96325135Y-84266371D01*
X96325134Y-84266373D01*
X96325134Y-84266375D01*
X96314500Y-84339364D01*
X96314500Y-84560636D01*
X96325134Y-84633625D01*
X96329833Y-84643238D01*
X96330960Y-84645542D01*
X96342717Y-84714416D01*
X96330960Y-84754456D01*
X96325134Y-84766375D01*
X96314500Y-84839364D01*
X96314500Y-85060636D01*
X96317439Y-85080806D01*
X96325134Y-85133625D01*
X96330960Y-85145542D01*
X96342717Y-85214416D01*
X96330960Y-85254456D01*
X96325134Y-85266375D01*
X96314500Y-85339364D01*
X96314500Y-85560636D01*
X96325134Y-85633625D01*
X96330960Y-85645542D01*
X96342717Y-85714416D01*
X96330960Y-85754456D01*
X96325134Y-85766375D01*
X96314500Y-85839364D01*
X96314500Y-86060636D01*
X96319827Y-86097199D01*
X96325134Y-86133625D01*
X96330960Y-86145542D01*
X96342717Y-86214416D01*
X96330960Y-86254456D01*
X96325134Y-86266375D01*
X96314500Y-86339364D01*
X96314500Y-86560636D01*
X96324607Y-86630009D01*
X96325134Y-86633625D01*
X96330960Y-86645542D01*
X96342717Y-86714416D01*
X96330960Y-86754456D01*
X96325134Y-86766375D01*
X96314500Y-86839364D01*
X96314500Y-87060636D01*
X96325134Y-87133625D01*
X96330960Y-87145542D01*
X96342717Y-87214416D01*
X96330960Y-87254456D01*
X96325134Y-87266375D01*
X96314500Y-87339364D01*
X96314500Y-87560636D01*
X96320757Y-87603581D01*
X96325134Y-87633625D01*
X96330960Y-87645542D01*
X96342717Y-87714416D01*
X96330960Y-87754456D01*
X96325134Y-87766375D01*
X96314500Y-87839364D01*
X96314500Y-88060636D01*
X96325134Y-88133625D01*
X96325134Y-88133626D01*
X96325135Y-88133628D01*
X96380172Y-88246210D01*
X96468789Y-88334827D01*
X96576572Y-88387518D01*
X96581375Y-88389866D01*
X96654364Y-88400500D01*
X96654370Y-88400500D01*
X97725630Y-88400500D01*
X97725636Y-88400500D01*
X97798625Y-88389866D01*
X97856118Y-88361759D01*
X97911210Y-88334827D01*
X97911210Y-88334826D01*
X97911211Y-88334826D01*
X97954217Y-88291820D01*
X98015540Y-88258334D01*
X98041899Y-88255500D01*
X98149961Y-88255500D01*
X98217000Y-88275185D01*
X98262755Y-88327989D01*
X98273186Y-88365668D01*
X98285306Y-88473642D01*
X98348834Y-89039619D01*
X98349412Y-89060425D01*
X98236568Y-91063403D01*
X98213143Y-91129229D01*
X98157849Y-91171941D01*
X98113217Y-91180427D01*
X97918434Y-91181139D01*
X97851323Y-91161700D01*
X97805376Y-91109063D01*
X97795179Y-91039942D01*
X97814879Y-90988249D01*
X97874394Y-90899179D01*
X97934737Y-90753497D01*
X97965500Y-90598842D01*
X97965500Y-90441158D01*
X97965500Y-90441155D01*
X97965499Y-90441153D01*
X97934738Y-90286510D01*
X97934737Y-90286503D01*
X97934735Y-90286498D01*
X97874397Y-90140827D01*
X97874395Y-90140823D01*
X97874394Y-90140821D01*
X97840633Y-90090294D01*
X97819755Y-90023617D01*
X97838239Y-89956237D01*
X97870097Y-89921636D01*
X97937150Y-89872150D01*
X98017793Y-89762882D01*
X98041766Y-89694372D01*
X98062646Y-89634701D01*
X98062646Y-89634699D01*
X98065500Y-89604269D01*
X98065500Y-89195730D01*
X98062646Y-89165300D01*
X98062646Y-89165298D01*
X98017793Y-89037119D01*
X98017792Y-89037117D01*
X97937150Y-88927850D01*
X97827882Y-88847207D01*
X97827880Y-88847206D01*
X97699700Y-88802353D01*
X97669270Y-88799500D01*
X97669266Y-88799500D01*
X96710734Y-88799500D01*
X96701289Y-88800385D01*
X96696081Y-88800874D01*
X96627497Y-88787533D01*
X96580739Y-88742871D01*
X96580463Y-88743084D01*
X96579095Y-88741301D01*
X96577120Y-88739415D01*
X96575515Y-88736635D01*
X96468365Y-88629485D01*
X96402750Y-88591602D01*
X96337136Y-88553719D01*
X96263950Y-88534109D01*
X96190766Y-88514500D01*
X96039234Y-88514500D01*
X95892863Y-88553719D01*
X95761635Y-88629485D01*
X95761632Y-88629487D01*
X95654487Y-88736632D01*
X95654485Y-88736635D01*
X95578719Y-88867863D01*
X95539500Y-89014234D01*
X95539500Y-89165765D01*
X95578719Y-89312136D01*
X95600625Y-89350078D01*
X95654485Y-89443365D01*
X95761635Y-89550515D01*
X95774508Y-89557947D01*
X95822723Y-89608511D01*
X95835948Y-89677117D01*
X95809982Y-89741983D01*
X95759962Y-89779895D01*
X95685824Y-89810604D01*
X95685814Y-89810609D01*
X95554711Y-89898210D01*
X95554707Y-89898213D01*
X95443213Y-90009707D01*
X95443210Y-90009711D01*
X95355609Y-90140814D01*
X95355602Y-90140827D01*
X95295264Y-90286498D01*
X95295261Y-90286510D01*
X95264500Y-90441153D01*
X95264500Y-90598846D01*
X95295261Y-90753489D01*
X95295264Y-90753501D01*
X95355602Y-90899172D01*
X95355609Y-90899185D01*
X95421475Y-90997760D01*
X95442353Y-91064438D01*
X95423868Y-91131818D01*
X95371889Y-91178508D01*
X95318827Y-91190650D01*
X93577824Y-91197019D01*
X93510713Y-91177580D01*
X93464765Y-91124944D01*
X93454568Y-91055822D01*
X93474266Y-91004132D01*
X93544394Y-90899179D01*
X93604737Y-90753497D01*
X93635500Y-90598842D01*
X93635500Y-90441158D01*
X93635500Y-90441155D01*
X93635499Y-90441153D01*
X93604738Y-90286510D01*
X93604737Y-90286503D01*
X93604735Y-90286498D01*
X93544397Y-90140827D01*
X93544390Y-90140814D01*
X93456789Y-90009711D01*
X93456786Y-90009707D01*
X93345292Y-89898213D01*
X93345288Y-89898210D01*
X93214185Y-89810609D01*
X93214172Y-89810602D01*
X93068501Y-89750264D01*
X93068489Y-89750261D01*
X92913845Y-89719500D01*
X92913842Y-89719500D01*
X91956158Y-89719500D01*
X91956155Y-89719500D01*
X91801510Y-89750261D01*
X91801498Y-89750264D01*
X91655827Y-89810602D01*
X91655814Y-89810609D01*
X91524711Y-89898210D01*
X91524707Y-89898213D01*
X91413213Y-90009707D01*
X91413210Y-90009711D01*
X91325609Y-90140814D01*
X91325602Y-90140827D01*
X91265264Y-90286498D01*
X91265261Y-90286510D01*
X91234500Y-90441153D01*
X91234500Y-90598846D01*
X91265261Y-90753489D01*
X91265264Y-90753501D01*
X91325602Y-90899172D01*
X91325609Y-90899185D01*
X91401302Y-91012467D01*
X91422180Y-91079145D01*
X91403695Y-91146525D01*
X91351717Y-91193215D01*
X91298654Y-91205357D01*
X90439954Y-91208499D01*
X90372843Y-91189060D01*
X90326895Y-91136424D01*
X90315500Y-91084500D01*
X90315500Y-81801153D01*
X91234500Y-81801153D01*
X91234500Y-81958846D01*
X91265261Y-82113489D01*
X91265264Y-82113501D01*
X91325602Y-82259172D01*
X91325609Y-82259185D01*
X91413210Y-82390288D01*
X91413213Y-82390292D01*
X91524707Y-82501786D01*
X91524711Y-82501789D01*
X91655814Y-82589390D01*
X91655827Y-82589397D01*
X91748544Y-82627801D01*
X91801503Y-82649737D01*
X91956153Y-82680499D01*
X91956156Y-82680500D01*
X91956158Y-82680500D01*
X92913844Y-82680500D01*
X92913845Y-82680499D01*
X93068497Y-82649737D01*
X93214179Y-82589394D01*
X93345289Y-82501789D01*
X93456789Y-82390289D01*
X93544394Y-82259179D01*
X93604737Y-82113497D01*
X93635500Y-81958842D01*
X93635500Y-81801158D01*
X93635500Y-81801155D01*
X93635499Y-81801153D01*
X95264500Y-81801153D01*
X95264500Y-81958846D01*
X95295261Y-82113489D01*
X95295264Y-82113501D01*
X95355602Y-82259172D01*
X95355609Y-82259185D01*
X95443210Y-82390288D01*
X95443213Y-82390292D01*
X95554707Y-82501786D01*
X95554711Y-82501789D01*
X95685814Y-82589390D01*
X95685827Y-82589397D01*
X95759961Y-82620104D01*
X95814365Y-82663945D01*
X95836430Y-82730239D01*
X95819151Y-82797938D01*
X95774511Y-82842050D01*
X95761635Y-82849485D01*
X95761632Y-82849487D01*
X95654487Y-82956632D01*
X95654485Y-82956635D01*
X95578719Y-83087863D01*
X95574612Y-83103191D01*
X95539500Y-83234234D01*
X95539500Y-83385766D01*
X95559109Y-83458950D01*
X95578719Y-83532136D01*
X95589322Y-83550500D01*
X95654485Y-83663365D01*
X95761635Y-83770515D01*
X95892865Y-83846281D01*
X96039234Y-83885500D01*
X96039236Y-83885500D01*
X96190764Y-83885500D01*
X96190766Y-83885500D01*
X96337135Y-83846281D01*
X96468365Y-83770515D01*
X96575515Y-83663365D01*
X96577117Y-83660589D01*
X96579082Y-83658715D01*
X96580465Y-83656914D01*
X96580745Y-83657129D01*
X96627678Y-83612373D01*
X96696086Y-83599126D01*
X96710734Y-83600500D01*
X96710735Y-83600500D01*
X97669270Y-83600500D01*
X97699699Y-83597646D01*
X97755310Y-83578187D01*
X97814549Y-83557459D01*
X97855504Y-83550500D01*
X98052472Y-83550500D01*
X98052474Y-83550500D01*
X98052475Y-83550500D01*
X98192485Y-83512984D01*
X98318015Y-83440510D01*
X99087805Y-82670717D01*
X99087810Y-82670714D01*
X99098013Y-82660510D01*
X99098015Y-82660510D01*
X99200510Y-82558015D01*
X99272984Y-82432485D01*
X99310500Y-82292474D01*
X99310500Y-82147526D01*
X99272984Y-82007515D01*
X99241206Y-81952474D01*
X99200510Y-81881985D01*
X99098015Y-81779490D01*
X99098013Y-81779488D01*
X98538015Y-81219490D01*
X98412485Y-81147016D01*
X98412486Y-81147016D01*
X98377482Y-81137637D01*
X98272475Y-81109500D01*
X97697525Y-81109500D01*
X97555494Y-81147557D01*
X97485644Y-81145894D01*
X97475949Y-81142343D01*
X97398502Y-81110264D01*
X97398494Y-81110261D01*
X97243845Y-81079500D01*
X97243842Y-81079500D01*
X95986158Y-81079500D01*
X95986155Y-81079500D01*
X95831510Y-81110261D01*
X95831498Y-81110264D01*
X95685827Y-81170602D01*
X95685814Y-81170609D01*
X95554711Y-81258210D01*
X95554707Y-81258213D01*
X95443213Y-81369707D01*
X95443210Y-81369711D01*
X95355609Y-81500814D01*
X95355602Y-81500827D01*
X95295264Y-81646498D01*
X95295261Y-81646510D01*
X95264500Y-81801153D01*
X93635499Y-81801153D01*
X93631190Y-81779490D01*
X93604737Y-81646503D01*
X93604735Y-81646498D01*
X93544397Y-81500827D01*
X93544390Y-81500814D01*
X93456789Y-81369711D01*
X93456786Y-81369707D01*
X93345292Y-81258213D01*
X93345288Y-81258210D01*
X93214185Y-81170609D01*
X93214172Y-81170602D01*
X93068501Y-81110264D01*
X93068489Y-81110261D01*
X92913845Y-81079500D01*
X92913842Y-81079500D01*
X91956158Y-81079500D01*
X91956155Y-81079500D01*
X91801510Y-81110261D01*
X91801498Y-81110264D01*
X91655827Y-81170602D01*
X91655814Y-81170609D01*
X91524711Y-81258210D01*
X91524707Y-81258213D01*
X91413213Y-81369707D01*
X91413210Y-81369711D01*
X91325609Y-81500814D01*
X91325602Y-81500827D01*
X91265264Y-81646498D01*
X91265261Y-81646510D01*
X91234500Y-81801153D01*
X90315500Y-81801153D01*
X90315500Y-77524500D01*
X90335185Y-77457461D01*
X90387989Y-77411706D01*
X90439500Y-77400500D01*
X116274145Y-77400500D01*
X116341184Y-77420185D01*
G37*
%TD.AperFunction*%
%TD*%
%TA.AperFunction,Conductor*%
%TO.N,GND*%
G36*
X113854676Y-84686226D02*
G01*
X114209056Y-84776765D01*
X114269137Y-84812432D01*
X114300397Y-84874918D01*
X114301821Y-84908480D01*
X114299500Y-84933237D01*
X114299500Y-86066769D01*
X114302353Y-86097199D01*
X114302353Y-86097201D01*
X114347206Y-86225380D01*
X114347209Y-86225386D01*
X114388860Y-86281821D01*
X114399999Y-86299999D01*
X114500000Y-86499999D01*
X114500000Y-86500000D01*
X114793561Y-86467382D01*
X114826179Y-86463758D01*
X114839872Y-86463000D01*
X115104270Y-86463000D01*
X115128612Y-86460716D01*
X115134699Y-86460146D01*
X115249851Y-86419852D01*
X115277094Y-86413656D01*
X115400000Y-86400000D01*
X119184485Y-85404083D01*
X119216042Y-85400000D01*
X120176000Y-85400000D01*
X120243039Y-85419685D01*
X120288794Y-85472489D01*
X120300000Y-85524000D01*
X120300000Y-85941944D01*
X120299635Y-85951454D01*
X120209041Y-87129174D01*
X120184272Y-87194507D01*
X120128115Y-87236077D01*
X120082159Y-87243621D01*
X114600018Y-87100000D01*
X114600000Y-87100000D01*
X113824000Y-87100000D01*
X113756961Y-87080315D01*
X113711206Y-87027511D01*
X113700000Y-86976000D01*
X113700000Y-84806371D01*
X113719685Y-84739332D01*
X113772489Y-84693577D01*
X113841647Y-84683633D01*
X113854676Y-84686226D01*
G37*
%TD.AperFunction*%
%TD*%
%TA.AperFunction,Conductor*%
%TO.N,GND*%
G36*
X125622539Y-77420185D02*
G01*
X125668294Y-77472989D01*
X125679500Y-77524500D01*
X125679500Y-83602046D01*
X125659815Y-83669085D01*
X125607011Y-83714840D01*
X125553420Y-83726029D01*
X122939274Y-83682168D01*
X122872574Y-83661361D01*
X122827711Y-83607797D01*
X122817567Y-83550930D01*
X122990000Y-80610000D01*
X118093259Y-80580736D01*
X118026338Y-80560651D01*
X117980900Y-80507574D01*
X117970000Y-80456738D01*
X117970000Y-77524500D01*
X117989685Y-77457461D01*
X118042489Y-77411706D01*
X118094000Y-77400500D01*
X125555500Y-77400500D01*
X125622539Y-77420185D01*
G37*
%TD.AperFunction*%
%TD*%
M02*
